<svg xmlns="http://www.w3.org/2000/svg" viewBox="0 0 512 512" width="512" height="512">
  <defs>
    <!-- Gradients for mystical effect -->
    <radialGradient id="bgGradient" cx="50%" cy="50%" r="50%">
      <stop offset="0%" style="stop-color:#16213e;stop-opacity:1" />
      <stop offset="50%" style="stop-color:#1a1a2e;stop-opacity:1" />
      <stop offset="100%" style="stop-color:#0f3460;stop-opacity:1" />
    </radialGradient>
    
    <radialGradient id="thirdEyeGlow" cx="50%" cy="50%" r="70%">
      <stop offset="0%" style="stop-color:#ffd700;stop-opacity:1" />
      <stop offset="30%" style="stop-color:#ffed4e;stop-opacity:0.9" />
      <stop offset="70%" style="stop-color:#ffb347;stop-opacity:0.6" />
      <stop offset="100%" style="stop-color:#ff8c00;stop-opacity:0.2" />
    </radialGradient>
    
    <linearGradient id="bodyGradient" x1="0%" y1="0%" x2="100%" y2="100%">
      <stop offset="0%" style="stop-color:#4169e1;stop-opacity:1" />
      <stop offset="50%" style="stop-color:#191970;stop-opacity:1" />
      <stop offset="100%" style="stop-color:#000080;stop-opacity:1" />
    </linearGradient>
    
    <linearGradient id="snakeGradient" x1="0%" y1="0%" x2="100%" y2="100%">
      <stop offset="0%" style="stop-color:#2f2f2f;stop-opacity:1" />
      <stop offset="100%" style="stop-color:#1a1a1a;stop-opacity:1" />
    </linearGradient>
  </defs>
  
  <!-- Background with subtle starfield effect -->
  <rect width="512" height="512" fill="url(#bgGradient)" rx="64"/>
  
  <!-- Subtle stars -->
  <circle cx="80" cy="60" r="1" fill="#ffffff" opacity="0.6"/>
  <circle cx="420" cy="80" r="1.5" fill="#00ffcc" opacity="0.4"/>
  <circle cx="60" cy="200" r="1" fill="#4ecdc4" opacity="0.5"/>
  <circle cx="450" cy="180" r="1" fill="#ffffff" opacity="0.3"/>
  <circle cx="100" cy="400" r="1.5" fill="#00ffcc" opacity="0.4"/>
  <circle cx="380" cy="420" r="1" fill="#4ecdc4" opacity="0.5"/>
  
  <!-- Aura/halo effect behind the figure -->
  <ellipse cx="256" cy="200" rx="120" ry="80" fill="none" stroke="rgba(0,255,204,0.1)" stroke-width="2" opacity="0.6"/>
  <ellipse cx="256" cy="200" rx="100" ry="60" fill="none" stroke="rgba(78,205,196,0.1)" stroke-width="1" opacity="0.4"/>
  
  <!-- Main figure body (simplified meditative pose) -->
  <!-- Head -->
  <ellipse cx="256" cy="140" rx="35" ry="40" fill="url(#bodyGradient)" opacity="0.9"/>
  
  <!-- Hair/headpiece -->
  <path d="M 220 120 Q 256 100 292 120 L 280 140 Q 256 125 232 140 Z" fill="#1a1a1a" opacity="0.8"/>
  <path d="M 230 130 Q 256 115 282 130 L 270 145 Q 256 135 242 145 Z" fill="#2d2d2d" opacity="0.7"/>
  
  <!-- Snake around neck -->
  <path d="M 200 160 Q 220 150 240 155 Q 260 160 280 155 Q 300 150 320 160 Q 300 170 280 175 Q 260 180 240 175 Q 220 170 200 160" 
        fill="url(#snakeGradient)" stroke="#333" stroke-width="1"/>
  
  <!-- Snake head -->
  <ellipse cx="200" cy="160" rx="8" ry="6" fill="#1a1a1a"/>
  <circle cx="197" cy="158" r="1" fill="#ffffff" opacity="0.8"/>
  
  <!-- Necklaces/mala -->
  <path d="M 220 180 Q 256 175 292 180" stroke="#2d2d2d" stroke-width="3" fill="none"/>
  <path d="M 225 190 Q 256 185 287 190" stroke="#2d2d2d" stroke-width="2" fill="none"/>
  <path d="M 230 200 Q 256 195 282 200" stroke="#2d2d2d" stroke-width="2" fill="none"/>
  
  <!-- Arms and hands in meditation pose -->
  <!-- Left arm -->
  <ellipse cx="220" cy="220" rx="15" ry="35" fill="url(#bodyGradient)" opacity="0.9" transform="rotate(-20 220 220)"/>
  <!-- Right arm -->
  <ellipse cx="292" cy="220" rx="15" ry="35" fill="url(#bodyGradient)" opacity="0.9" transform="rotate(20 292 220)"/>
  
  <!-- Hands in meditation mudra -->
  <ellipse cx="210" cy="250" rx="12" ry="8" fill="url(#bodyGradient)" opacity="0.9"/>
  <ellipse cx="302" cy="250" rx="12" ry="8" fill="url(#bodyGradient)" opacity="0.9"/>
  
  <!-- Torso -->
  <ellipse cx="256" cy="280" rx="50" ry="60" fill="url(#bodyGradient)" opacity="0.9"/>
  
  <!-- Third Eye - The focal point -->
  <ellipse cx="256" cy="125" rx="12" ry="18" fill="url(#thirdEyeGlow)" opacity="0.9"/>
  <ellipse cx="256" cy="125" rx="8" ry="12" fill="#ffd700" opacity="1"/>
  <ellipse cx="256" cy="125" rx="4" ry="6" fill="#ffffff" opacity="0.8"/>
  
  <!-- Third Eye glow effect -->
  <ellipse cx="256" cy="125" rx="20" ry="30" fill="none" stroke="#ffd700" stroke-width="2" opacity="0.6"/>
  <ellipse cx="256" cy="125" rx="30" ry="45" fill="none" stroke="#ffed4e" stroke-width="1" opacity="0.4"/>
  
  <!-- Eyes (closed in meditation) -->
  <path d="M 240 135 Q 248 130 256 135" stroke="#4a4a4a" stroke-width="2" fill="none" opacity="0.7"/>
  <path d="M 256 135 Q 264 130 272 135" stroke="#4a4a4a" stroke-width="2" fill="none" opacity="0.7"/>
  
  <!-- Lotus position base -->
  <ellipse cx="256" cy="380" rx="80" ry="40" fill="rgba(0,255,204,0.1)" stroke="rgba(0,255,204,0.3)" stroke-width="2"/>
  
  <!-- Additional mystical elements -->
  <!-- Energy lines emanating from third eye -->
  <line x1="256" y1="95" x2="250" y2="85" stroke="#ffd700" stroke-width="1" opacity="0.6"/>
  <line x1="256" y1="95" x2="262" y2="85" stroke="#ffd700" stroke-width="1" opacity="0.6"/>
  <line x1="256" y1="95" x2="256" y2="80" stroke="#ffd700" stroke-width="1" opacity="0.6"/>
</svg>